Coordinates
version=1
nRows=12
nColumns=38
inDegrees=yes

Units are S.I. units (second, meters, Newtons, ...)
Angles are in degrees.

endheader
time	pelvis_tilt	pelvis_list	pelvis_rotation	pelvis_tx	pelvis_ty	pelvis_tz	hip_flexion_r	hip_adduction_r	hip_rotation_r	knee_angle_r	ankle_angle_r	subtalar_angle_r	mtp_angle_r	hip_flexion_l	hip_adduction_l	hip_rotation_l	knee_angle_l	ankle_angle_l	subtalar_angle_l	mtp_angle_l	lumbar_extension	lumbar_bending	lumbar_rotation	arm_flex_r	arm_add_r	arm_rot_r	elbow_flex_r	pro_sup_r	wrist_flex_r	wrist_dev_r	arm_flex_l	arm_add_l	arm_rot_l	elbow_flex_l	pro_sup_l	wrist_flex_l	wrist_dev_l
      1.69000000	      0.60964886	     -2.80388203	      2.18336267	      0.35804232	      0.98730757	     -0.23643937	     -2.72072322	      8.91046478	      1.08045970	     -5.31866497	      3.37490639	    -11.89380181	      0.00000000	     26.43262781	     -5.15118222	     -7.75125327	    -49.87975315	      1.56565368	    -13.46731200	      0.00000000	    -10.07525829	      2.87191948	      0.87466013	      1.74773648	    -14.12318475	     31.44958422	     42.85155542	     43.16047554	      0.00000000	      0.00000000	     -2.40576233	     -9.16858127	     38.61012038	     30.07367538	     43.16047554	      0.00000000	      0.00000000
      1.70000000	      0.51419192	     -2.87306904	      1.60346925	      0.37029125	      0.98558201	     -0.23555548	     -3.18275124	      9.08333285	      1.43061208	     -5.75408159	      4.12492650	    -12.29051523	      0.00000000	     27.01912320	     -5.08630917	     -8.18616061	    -46.93315064	      1.84028092	    -13.20601057	      0.00000000	    -10.09404888	      2.84998795	      1.45541167	      2.71587650	    -14.39014940	     31.21483761	     43.36310114	     43.17253579	      0.00000000	      0.00000000	     -3.15870348	     -9.23910262	     38.63472645	     29.87971048	     43.17253579	      0.00000000	      0.00000000
      1.71000000	      0.59065851	     -2.91762854	      1.05686194	      0.38266631	      0.98388208	     -0.23475756	     -4.00903861	      9.28333110	      2.85381934	     -5.87360670	      4.37319555	    -14.14583797	      0.00000000	     27.33217604	     -5.04010347	     -8.68823053	    -43.82880363	      2.08247707	    -12.46582143	      0.00000000	    -10.34461698	      2.82757688	      2.00338066	      2.97340341	    -15.03157803	     30.20727570	     46.71211581	     43.27136530	      0.00000000	      0.00000000	     -3.84663475	     -9.23979758	     38.46012917	     29.44927772	     43.27136530	      0.00000000	      0.00000000
      1.72000000	      0.63312725	     -2.93651844	      0.48772592	      0.39494637	      0.98190164	     -0.23403251	     -4.63625949	      9.36906928	      3.54912291	     -6.39714279	      5.55089768	    -14.45544482	      0.00000000	     27.37627182	     -4.73927754	     -8.48381752	    -40.29368913	      2.55143793	    -11.61854271	      0.00000000	    -10.56826660	      2.76534297	      2.47396292	      3.94786413	    -15.22752675	     29.77259790	     47.33224352	     43.28907241	      0.00000000	      0.00000000	     -4.57793178	     -9.31610103	     38.47701273	     29.27237186	     43.28907241	      0.00000000	      0.00000000
      1.73000000	      0.66166961	     -2.87201556	     -0.03172205	      0.40732537	      0.97983984	     -0.23328373	     -5.23740391	      9.37423558	      4.01772272	     -7.01616888	      6.61542615	    -14.73146655	      0.00000000	     27.75988624	     -4.72215960	     -9.63582299	    -37.07681264	      1.76224300	    -11.04043266	      0.00000000	    -10.77137497	      2.56514961	      3.07599068	      4.59691107	    -15.47931234	     29.04062624	     49.00758901	     43.33181288	      0.00000000	      0.00000000	     -5.26738415	     -9.43512383	     38.36159258	     28.94055827	     43.33181288	      0.00000000	      0.00000000
      1.74000000	      0.72956260	     -2.96476627	     -0.43212697	      0.41983828	      0.97763273	     -0.23282004	     -5.96239233	      9.49397930	      4.72999267	     -7.51589137	      7.74873349	    -14.86960113	      0.00000000	     27.68086100	     -4.50296095	     -9.35112887	    -33.40741403	      1.63279403	     -9.81289706	      0.00000000	    -11.01180760	      2.61333169	      3.34658018	      5.46543136	    -15.72023089	     28.65815738	     49.78924402	     43.34583759	      0.00000000	      0.00000000	     -5.93682320	     -9.43790685	     38.36772282	     28.74669350	     43.34583759	      0.00000000	      0.00000000
      1.75000000	      0.86459314	     -3.00236486	     -0.81486219	      0.43256352	      0.97545757	     -0.23250468	     -6.85161548	      9.51425628	      5.26222716	     -7.80370753	      8.76237904	    -14.95027944	      0.00000000	     27.60387595	     -4.40548977	     -9.77414440	    -29.89186505	      1.15334256	     -8.42092586	      0.00000000	    -11.33601255	      2.61717943	      3.82663181	      4.99196160	    -16.26972148	     26.04496852	     54.51687315	     43.49024263	      0.00000000	      0.00000000	     -6.49339644	     -9.35460036	     37.96400156	     28.35328993	     43.49024263	      0.00000000	      0.00000000
      1.76000000	      1.04297929	     -3.04411589	     -1.08306175	      0.44547997	      0.97334474	     -0.23240154	     -7.81724799	      9.51859810	      5.63015091	     -8.07993247	      9.73823567	    -14.81219200	      0.00000000	     27.41120562	     -4.22983289	    -10.04268420	    -26.37620820	      0.83223283	     -7.12609675	      0.00000000	    -11.67557214	      2.62330003	      4.13582135	      5.02726869	    -15.99936098	     23.29298841	     56.58089877	     43.66466292	      0.00000000	      0.00000000	     -7.04683499	     -9.38437779	     37.72465054	     28.21082441	     43.66466292	      0.00000000	      0.00000000
      1.77000000	      1.26439767	     -3.02514122	     -1.26810872	      0.45857122	      0.97129791	     -0.23264455	     -8.99787814	      9.43466620	      6.07555744	     -8.02927203	     10.42120446	    -14.83242274	      0.00000000	     27.12735667	     -3.93265721	    -10.12295210	    -22.93786673	      0.76456015	     -5.97794124	      0.00000000	    -12.02851844	      2.60604781	      4.28375117	      5.93570197	    -16.13380259	     23.20851004	     57.16899913	     43.68042021	      0.00000000	      0.00000000	     -7.64306162	     -9.38335656	     37.72835411	     28.02278929	     43.68042021	      0.00000000	      0.00000000
      1.78000000	      1.38450411	     -3.15853119	     -1.49989866	      0.47177684	      0.96912682	     -0.23284216	    -10.06398125	      9.47064433	      6.25071102	     -7.92720431	     11.11157133	    -14.80127625	      0.00000000	     26.97757504	     -3.82958689	    -10.21920725	    -19.76666398	      0.86692016	     -5.10360572	      0.00000000	    -12.23472869	      2.72514611	      4.52964160	      6.59062713	    -16.30296534	     23.12395790	     57.86062315	     43.69421876	      0.00000000	      0.00000000	     -8.13458072	     -9.34342559	     37.70381011	     27.82347132	     43.69421876	      0.00000000	      0.00000000
      1.79000000	      1.53431934	     -3.28101471	     -1.72589291	      0.48514837	      0.96692095	     -0.23310071	    -11.16092759	      9.51990428	      6.18843102	     -7.86385831	     11.67980099	    -14.60466734	      0.00000000	     26.86825176	     -3.73844412	    -10.36713759	    -16.99947089	      1.12120703	     -4.37424966	      0.00000000	    -12.48005041	      2.83083928	      4.78394816	      7.11330660	    -16.60645612	     23.11841559	     59.01972946	     43.71661989	      0.00000000	      0.00000000	     -8.68947293	     -9.21843343	     37.63443952	     27.41787072	     43.71661989	      0.00000000	      0.00000000
      1.80000000	      1.61006546	     -3.45536353	     -1.94625484	      0.49872869	      0.96455791	     -0.23349636	    -12.13530323	      9.64553654	      6.31844257	     -7.93863334	     12.19942828	    -14.50377327	      0.00000000	     27.02792711	     -3.83532813	    -10.92201745	    -14.98620558	      1.54245893	     -2.84285472	      0.00000000	    -12.60892311	      3.02851517	      5.10820033	      7.22285964	    -17.06778317	     22.90853756	     61.11830899	     43.77595554	      0.00000000	      0.00000000	     -9.03632900	     -8.95782139	     37.43774003	     26.66240606	     43.77595554	      0.00000000	      0.00000000
